<?xml version="1.0" encoding="utf-8"?>
<!-- Generator: Adobe Illustrator 24.0.3, SVG Export Plug-In . SVG Version: 6.00 Build 0)  -->
<svg version="1.1" id="Capa_1" xmlns="http://www.w3.org/2000/svg" xmlns:xlink="http://www.w3.org/1999/xlink" x="0px" y="0px"
	 viewBox="0 0 512 512" style="enable-background:new 0 0 512 512;" xml:space="preserve">
<style type="text/css">
	.st0{fill:#F0EFF4;}
	.st1{fill:#080705;}
	.st2{fill:#494947;}
	.st3{fill:#593F62;}
	.st4{fill:#ED6A5A;}
</style>
<rect x="0" y="0" class="st0" width="512" height="512"/>
<g>
	<path class="st1" d="M436.3,141.9C388.1,93.8,324.1,67.2,256,67.2S123.9,93.8,75.7,141.9C27.5,190.1,1,254.1,1,322.2
		c0,40.2,9.1,78.6,27,114.3l4.1,8.2h447.7l4.1-8.2c17.9-35.7,27-74.1,27-114.3C511,254.1,484.5,190.1,436.3,141.9z M118.7,414.9
		c-15.8-23.3-25.2-49.8-27.6-77.7h35.1v-29.9H91c3.1-34.5,16.8-65.9,37.8-91.1l24.8,24.8l21.1-21.1L150,195.1
		c25.2-21,56.6-34.7,91.1-37.8v35.1h29.9v-35.1c34.5,3.1,65.9,16.8,91.1,37.8l-24.8,24.8l21.1,21.1l24.8-24.8
		c21,25.2,34.7,56.6,37.8,91.1h-35.1v29.9H421c-2.5,27.9-11.9,54.4-27.6,77.7H118.7z M461.2,414.9h-33
		c15.3-28.3,23.3-59.9,23.3-92.6c0-107.8-87.7-195.5-195.5-195.5S60.5,214.4,60.5,322.2c0,32.8,8,64.3,23.3,92.6h-33
		c-13.2-29.1-19.9-60.3-19.9-92.6c0-124.1,101-225.1,225.1-225.1s225.1,101,225.1,225.1C481.1,354.6,474.4,385.7,461.2,414.9z"/>
	<path class="st2" d="M256,339.4c-8.5,0-15.5-6.9-15.5-15.5c0-8.5,6.9-15.5,15.5-15.5c8.5,0,15.5,6.9,15.5,15.5
		C271.5,332.5,264.5,339.4,256,339.4z"/>
</g>
<g>
	<g>
		<g>
			<path class="st3" d="M210.5,212.8c7.9-6.2,9.3-17.8,3.1-25.7s-17.8-9.3-25.7-3.1c-7.9,6.2-9.3,17.8-3.1,25.7
				C191,217.7,202.6,219.1,210.5,212.8z"/>
			<path class="st4" d="M171.7,318.9c-19.8,15.5-23.2,44.4-7.7,64.2s44.4,23.2,64.2,7.7s23.2-44.4,7.7-64.2
				C220.4,306.8,191.5,303.4,171.7,318.9z M219.8,380c-14,11-33.9,8.6-44.9-5.4c-11-14-8.6-33.9,5.4-44.9s33.9-8.6,44.9,5.4
				C236.2,349.1,233.8,369,219.8,380z"/>
			<path class="st3" d="M266.1,232.5l-11.3-14.4c-10.8,8.5-22.9,11.6-34.4,10.2l-24.8-2.6c-4.1-0.8-9.1,0.2-13.1,3.3
				s-6.4,7.4-6.7,12.2l-4.2,35.3c-0.5,4.5,0.5,9.5,3.6,13.5c3.1,4,7.7,6.1,12.5,7l38.5,2.3l28.3,36l14.4-11.3l-35.3-44.9l-28.3-3.4
				l3.3-30.5l9.6,1.2C234.5,248.6,251.4,244.1,266.1,232.5z"/>
			<path class="st4" d="M272.4,239.8c-19.8,15.5-23.2,44.4-7.7,64.2c15.5,19.8,44.4,23.2,64.2,7.7c19.8-15.5,23.2-44.4,7.7-64.2
				C321.1,227.7,292.2,224.3,272.4,239.8z M320.4,300.9c-14,11-33.9,8.6-44.9-5.4c-11-14-8.6-33.9,5.4-44.9c14-11,33.9-8.6,44.9,5.4
				C336.8,270,334.5,289.9,320.4,300.9z"/>
		</g>
	</g>
</g>
</svg>
