<svg id="Capa_1" data-name="Capa 1" xmlns="http://www.w3.org/2000/svg" viewBox="0 0 512 512"><defs><style>.cls-1{fill:#f0eff4;}.cls-2{fill:#080705;}.cls-3{fill:#494947;}.cls-4{fill:#593f62;}.cls-5{fill:#ed6a5a;}</style></defs><title>Plan de travail 1</title><rect class="cls-1" width="512" height="512"/><path class="cls-2" d="M436.31,141.93A255,255,0,0,0,1,322.24,252.48,252.48,0,0,0,28,436.52l4.14,8.24H479.86l4.14-8.24a255.12,255.12,0,0,0-47.69-294.59Zm-317.63,273A163.81,163.81,0,0,1,91,337.18h35.15V307.3H91.05a164.9,164.9,0,0,1,37.8-91.08L153.63,241l21.13-21.13L150,195.09a164.9,164.9,0,0,1,91.08-37.8v35.13h29.88V157.29A164.93,164.93,0,0,1,362,195.09l-24.79,24.79L358.36,241l24.79-24.79A164.9,164.9,0,0,1,421,307.3H385.82v29.88H421a163.81,163.81,0,0,1-27.65,77.7Zm342.55,0h-33a194,194,0,0,0,23.28-92.64c0-107.81-87.7-195.51-195.51-195.51S60.49,214.43,60.49,322.24a193.93,193.93,0,0,0,23.28,92.64h-33a222.82,222.82,0,0,1-19.89-92.64c0-124.13,101-225.12,225.12-225.12s225.12,101,225.12,225.12A222.82,222.82,0,0,1,461.23,414.88Z"/><path class="cls-3" d="M256,339.43a15.49,15.49,0,1,1,15.48-15.49A15.5,15.5,0,0,1,256,339.43Z"/><path class="cls-4" d="M210.5,212.84a18.29,18.29,0,1,0-25.69-3.08A18.36,18.36,0,0,0,210.5,212.84Z"/><path class="cls-5" d="M171.73,318.92A45.73,45.73,0,1,0,236,326.61,45.87,45.87,0,0,0,171.73,318.92Zm48,61.12a32,32,0,1,1,5.39-45A31.81,31.81,0,0,1,219.77,380Z"/><path class="cls-4" d="M266.11,232.53,254.8,218.15c-10.78,8.47-22.88,11.59-34.44,10.2l-24.76-2.64a17.16,17.16,0,0,0-19.77,15.54l-4.23,35.32A18.34,18.34,0,0,0,175.2,290c3.1,4,7.73,6.13,12.51,7l38.47,2.33,28.26,35.95L268.82,324,233.5,279.1l-28.26-3.39,3.34-30.53,9.63,1.15C234.54,248.61,251.37,244.11,266.11,232.53Z"/><path class="cls-5" d="M272.4,239.8a45.73,45.73,0,1,0,64.21,7.69A45.87,45.87,0,0,0,272.4,239.8Zm48,61.12a32,32,0,1,1,5.39-45A31.82,31.82,0,0,1,320.44,300.92Z"/></svg>